<?xml version="1.0" encoding="utf-8"?>
<!-- Generator: Adobe Illustrator 24.0.1, SVG Export Plug-In . SVG Version: 6.00 Build 0)  -->
<svg version="1.1" id="Layer_1" xmlns="http://www.w3.org/2000/svg" xmlns:xlink="http://www.w3.org/1999/xlink" x="0px" y="0px"
	 viewBox="0 0 128 128" style="enable-background:new 0 0 128 128;" xml:space="preserve">
<style type="text/css">
	.st0{clip-path:url(#SVGID_2_);}
	.st1{fill:url(#SVGID_3_);}
	.st2{fill:url(#SVGID_4_);}
	.st3{fill:url(#SVGID_5_);}
	.st4{fill:url(#SVGID_6_);}
</style>
<g>
	<g>
		<g>
			<defs>
				<rect id="SVGID_1_" y="0" width="128" height="128"/>
			</defs>
			<clipPath id="SVGID_2_">
				<use xlink:href="#SVGID_1_"  style="overflow:visible;"/>
			</clipPath>
			<g class="st0">
				
					<linearGradient id="SVGID_3_" gradientUnits="userSpaceOnUse" x1="9.7079" y1="359.9706" x2="51.4482" y2="359.9706" gradientTransform="matrix(1 0 0 1 0 -296)">
					<stop  offset="1.385225e-07" style="stop-color:#7BE595"/>
					<stop  offset="0.8863" style="stop-color:#55C595"/>
				</linearGradient>
				<path class="st1" d="M51,27c0.9,1.5,0.4,3.4-1.1,4.2c-0.1,0.1-0.3,0.2-0.5,0.2c-1.5,0.6-2.9,1.3-4.3,2.1c-2.4,1.4-4.7,3.1-6.8,5
					c-4,3.8-7.3,8.4-9.4,13.6c-0.1,0.1-0.1,0.3-0.2,0.4c0,0.1-0.1,0.3-0.1,0.4c0,0,0,0.1-0.1,0.1c-1.5,4-2.3,8.4-2.3,13
					c0,7,1.9,13.5,5.2,19.1c0.1,0.2,0.3,0.4,0.4,0.6c3.6,5.8,8.7,10.6,14.9,13.7l-0.1,0.1l-9.1,10.9c-0.9,1.1-2.4,1.4-3.6,0.9
					c-0.2-0.1-0.4-0.2-0.6-0.3c-1.2-0.8-2.4-1.7-3.6-2.6l0,0c-0.1,0-0.1-0.1-0.2-0.1c-0.2-0.2-0.4-0.3-0.6-0.5
					c-0.1-0.1-0.2-0.2-0.3-0.2c-0.2-0.1-0.4-0.3-0.5-0.5L28,107c-0.2-0.2-0.5-0.4-0.7-0.6c-0.1-0.1-0.1-0.1-0.2-0.2
					c-0.2-0.2-0.4-0.3-0.5-0.5c-0.1-0.1-0.1-0.1-0.2-0.2c-0.2-0.2-0.5-0.4-0.7-0.7c0,0,0,0-0.1-0.1c-0.2-0.2-0.4-0.4-0.6-0.6
					l-0.1-0.1c-0.5-0.5-0.9-1-1.4-1.4l0,0c-8.2-9.1-13.4-20.9-14-33.9c0-0.1,0-0.1,0-0.2c0-0.2,0-0.4,0-0.6c0-0.3,0-0.7,0-1
					c0-0.2,0-0.5,0-0.7c0-17.1,7.9-32.3,20.2-42.2c3.6-2.9,7.6-5.3,11.8-7.3c1.5-0.7,3.2-0.1,4,1.3L51,27z"/>
				
					<linearGradient id="SVGID_4_" gradientUnits="userSpaceOnUse" x1="97.3171" y1="312.3067" x2="97.3171" y2="402.1468" gradientTransform="matrix(1 0 0 1 0 -296)">
					<stop  offset="1.385225e-07" style="stop-color:#7BE595"/>
					<stop  offset="0.8863" style="stop-color:#55C595"/>
				</linearGradient>
				<path class="st2" d="M118.2,68.5c0,0.1,0,0.1,0,0.2c-0.6,13-5.8,24.9-14,33.9l0,0c-0.4,0.5-0.9,1-1.4,1.4
					c-0.1,0.1-0.1,0.1-0.2,0.2c-0.2,0.2-0.4,0.4-0.6,0.6c0,0,0,0-0.1,0.1c-0.2,0.2-0.5,0.4-0.7,0.7c-0.1,0-0.1,0.1-0.2,0.2
					c-0.2,0.2-0.4,0.3-0.5,0.5c-0.1,0.1-0.1,0.1-0.2,0.2c-0.2,0.2-0.5,0.4-0.7,0.6l-0.1,0.1c-0.2,0.2-0.4,0.3-0.6,0.5
					c-0.1,0.1-0.2,0.1-0.2,0.2c-0.2,0.2-0.4,0.3-0.6,0.5l-0.1,0.1l0,0c-1.2,0.9-2.3,1.8-3.6,2.6c-0.2,0.1-0.4,0.2-0.6,0.3
					c-1.2,0.5-2.7,0.2-3.6-0.9l-9.1-10.9L81,99.5c6.1-3.1,11.3-7.9,14.9-13.7c0.2-0.2,0.3-0.4,0.4-0.6c3.3-5.6,5.2-12.1,5.2-19.1
					c0-4.4-0.8-8.6-2.2-12.6c-0.1-0.2-0.1-0.4-0.2-0.6c0-0.1-0.1-0.3-0.1-0.4c-2.1-5.4-5.4-10.2-9.5-14c-2.1-1.9-4.3-3.6-6.8-5
					c-1.4-0.8-2.8-1.5-4.3-2.1c-0.2-0.1-0.3-0.2-0.5-0.2c-1.4-0.9-1.9-2.7-1.1-4.2l5.2-9.1c0.8-1.4,2.5-2,4-1.3
					c4.3,1.9,8.2,4.4,11.8,7.3C110.1,33.8,118,49,118,66.1c0,0.2,0,0.5,0,0.7c0,0.3,0,0.7,0,1C118.3,68.1,118.2,68.3,118.2,68.5z"/>
				
					<linearGradient id="SVGID_5_" gradientUnits="userSpaceOnUse" x1="68.489" y1="368.589" x2="89.5557" y2="389.6557" gradientTransform="matrix(1 0 0 1 0 -296)">
					<stop  offset="1.385225e-07" style="stop-color:#7BE595"/>
					<stop  offset="0.8863" style="stop-color:#55C595"/>
				</linearGradient>
				<path class="st3" d="M96,85.8c-3.6,5.8-8.7,10.6-14.9,13.7L65.4,80.9c-0.7-0.9-2.1-0.9-2.9,0l12.3-14.7l0,0l16.4,19.5
					C92.5,87.2,94.7,87.2,96,85.8z"/>
				
					<linearGradient id="SVGID_6_" gradientUnits="userSpaceOnUse" x1="38.4239" y1="389.62" x2="71.1852" y2="356.8588" gradientTransform="matrix(1 0 0 1 0 -296)">
					<stop  offset="1.385225e-07" style="stop-color:#7BE595"/>
					<stop  offset="0.8863" style="stop-color:#55C595"/>
				</linearGradient>
				<path class="st4" d="M74.9,66.2L62.6,80.9L50.9,94.8l-4,4.7c-6.1-3.1-11.3-7.9-14.9-13.7c1.2,1.3,3.5,1.3,4.7-0.1l16.4-19.5
					l5.5-6.5l3-3.6c1.3-1.5,3.6-1.5,4.8,0l3,3.6L74.9,66.2z"/>
			</g>
		</g>
	</g>
</g>
</svg>
